<svg width="498" height="150" viewBox="0 0 498 150" fill="none" xmlns="http://www.w3.org/2000/svg">
<path d="M489.354 69.932C493.774 61.6439 506.052 50.4138 510.947 47.5316M486.648 51.7628C487.748 52.1545 507.067 63.6807 511.359 66.3745M-20.1394 110.762C-19.0469 101.432 -11.7111 86.4973 -8.20485 82.0282M-29.2863 94.8312C-28.1196 94.7949 -5.92669 98.4799 -0.947985 99.4225M177.062 -30.2761C174.436 -32.1511 170.441 -35.9344 169.743 -39.1546C169.156 -41.8635 173.214 -49.25 173.302 -53.6989C173.32 -54.598 173.393 -55.5923 173.26 -56.3946C172.718 -60.6476 174.642 -68.67 176.516 -67.704C178.571 -66.6451 182.64 -63.9198 184.78 -61.8374C188.623 -64.6519 200.372 -65.7794 204.583 -63.0909C205.457 -64.3909 210.665 -70.3209 211.331 -69.5164C213.163 -67.3037 216.139 -59.8372 215.35 -55.3187C215.864 -51.3927 216.256 -48.7643 217.688 -45.0635C220.153 -38.6887 218.108 -36.821 212.526 -31.9871M196.481 10.4171C190.822 12.368 179.479 12.5224 177.967 2.42892C177.498 -0.70351 177.998 -3.80004 179.879 -6.39899C183.805 -11.8243 193.775 -11.2647 196.857 -5.30955C197.194 -4.65796 197.636 -2.55101 197.557 -2.64228C195.409 -5.13146 188.347 -3.05294 188.793 1.42328C189.134 4.84105 192.575 6.91087 196.542 6.37762M180.075 -35.6301C186.134 -40.4441 195.177 -40.9671 202.406 -39.1484C204.56 -38.6065 209.067 -36.3333 210.256 -35.0282M261.434 168.612C265.854 160.324 278.132 149.094 283.027 146.211M258.728 150.443C259.828 150.834 279.147 162.361 283.439 165.054M519.527 98.0482C522.054 100.92 524.748 103.643 526.384 107.166C533.415 122.307 532.417 147.349 528.447 163.303M519.527 98.0482C513.725 102.541 503.862 99.4236 501.995 91.426C501.063 87.4288 500.584 83.1665 500.42 78.3599C504.556 78.7238 509.783 79.708 513.505 80.85C520.522 83.003 522.807 92.2385 519.527 98.0482ZM528.447 163.303C530.89 148.527 539.565 139.122 548.482 135.385C552.527 133.69 556.456 132.925 561.066 132.625C560.929 136.064 559.475 142.61 558.504 145.983C554.539 159.76 540.696 161.296 528.447 163.303ZM-9.6441 56.4536C-6.33829 58.3781 -2.92084 60.109 -0.254059 62.9332C11.2072 75.0711 18.1849 99.1418 19.4677 115.532M-9.6441 56.4536C-13.7267 62.5514 -24.0688 62.7157 -28.3704 55.7198C-30.5203 52.2233 -32.3235 48.3316 -34 43.8239C-29.9613 42.8601 -24.6917 42.1397 -20.7994 42.0451C-13.4617 41.8669 -8.37107 49.9045 -9.6441 56.4536ZM19.4677 115.532C17.1094 100.743 22.3618 89.0757 29.6387 82.7085C32.9392 79.8206 36.4241 77.8518 40.7019 76.1082C41.6604 79.4133 42.3526 86.0837 42.4991 89.5902C43.0974 103.914 30.4522 109.752 19.4677 115.532ZM124.104 -43.5504C133.211 -45.851 149.779 -44.3129 155.204 -42.6275M135.734 -57.7695C136.184 -56.6922 140.641 -34.6415 141.533 -29.6534M-14.1644 -7.80371C-13.4939 -7.37158 -14.4161 -6.68673 -14.8826 -6.68935C-16.1468 -6.69644 -16.6748 -8.19969 -16.3931 -9.2402C-15.8893 -11.1014 -13.6837 -11.7835 -12.0097 -11.1468C-9.55292 -10.2125 -8.69753 -7.22371 -9.70693 -4.93075C-11.0523 -1.87459 -14.8487 -0.842466 -17.7556 -2.2319C-21.4136 -3.98038 -22.6237 -8.59467 -20.8505 -12.1132C-18.703 -16.3745 -13.2655 -17.7633 -9.13669 -15.6042C-4.27104 -13.0598 -2.70317 -6.79609 -5.24949 -2.05778C-8.18932 3.41278 -15.2813 5.16 -20.6285 2.22554C-26.7044 -1.10877 -28.6312 -9.03027 -25.308 -14.9861C-21.5799 -21.6677 -12.8279 -23.7741 -6.26373 -20.0617C1.02373 -15.9402 3.30994 -6.35707 -0.792041 0.81518M532.464 13.5284C532.667 14.2997 531.524 14.1831 531.182 13.8665C530.253 13.0084 530.878 11.5426 531.788 10.9645C533.415 9.93054 535.503 10.915 536.31 12.5144C537.493 14.8614 536.108 17.6447 533.816 18.6563C530.761 20.0046 527.262 18.2053 526.054 15.2186C524.533 11.4601 526.753 7.23765 530.436 5.83671C534.896 4.13997 539.846 6.78311 541.438 11.1623C543.313 16.3229 540.244 22.0043 535.168 23.7841C529.307 25.8389 522.894 22.3442 520.926 16.5707C518.691 10.0104 522.613 2.86328 529.084 0.708882C536.343 -1.70803 544.224 2.64144 546.565 9.81016C549.164 17.7688 544.387 26.385 536.52 28.9119M134.971 167.486C132.138 168.913 129.66 170.42 126.958 171.94C121.786 174.849 108.9 172.986 104.806 168.964C103.778 167.953 103.338 166.24 103.002 164.873C101.4 158.35 110.23 156.304 113.442 152.454C113.962 151.832 115.101 147.476 115.72 146.225C119.188 139.221 126.021 133.675 134.156 133.618C137.288 133.538 140.056 133.827 142.49 134.409C149.258 136.026 154.284 139.561 157.488 146.049C157.83 146.752 158.615 148.82 159.257 149.45C161.231 151.389 169.216 156.823 169.216 156.823C173.467 157.143 185.886 158.097 183.968 165.003C183.654 166.131 178.288 168.75 177.316 168.964C163.099 172.093 158.913 165.458 153.65 162.417C150.28 160.47 145.648 158.614 143.28 154.774C142.008 152.712 141.956 150.031 140.842 147.89M103.191 160.268C100.719 159.751 93.8746 158.891 97.4792 153.5C100.345 149.215 111.011 150.486 114.485 148.773M150.185 137.663C151.699 137.409 153.425 136.784 155.224 136.404C160.065 135.38 165.047 133.831 169.62 131.938C177.491 128.679 185.077 124.228 193.892 124.047C198.516 123.953 203.397 124.981 207.871 126.096C211.203 126.927 215.853 129.466 218.109 132.157C220.027 134.446 221.025 136.804 223.681 138.445C225.689 139.686 235.594 142.246 237.005 144.166C238.461 146.146 237.815 147.91 237.508 148.318C234.272 152.632 221.978 148.891 217.761 147.769C217.023 147.573 216.291 147.388 215.567 147.154C214.748 146.889 213.899 146.722 213.087 146.437C204.875 143.415 200.768 148.171 196.386 149.681C193.024 150.839 190.017 152.029 186.618 152.953C182.703 154.426 178.343 154.978 174.74 157.214M200.175 124.494C204.407 123.072 205.333 116.369 205.022 112.526C204.814 109.952 202.654 107.044 203.573 104.416C204.479 101.827 207.833 102.032 209.285 103.997C213.267 109.388 209.953 121.393 204.792 125.321M114.271 150.108C115.94 150.678 116.459 150.576 116.949 151.708C117.403 152.758 115.166 153.282 113.62 152.307M146.432 158.853C141.513 159.585 138.796 160.046 136.026 164.472C135.452 165.388 134.839 168.06 134.923 169.182C135.142 172.109 141.783 173.626 145.333 173.271C149.932 172.811 155.86 166.392 157.234 165.629M111.646 27.3276C108.644 17.3126 101.003 11.6188 99.9064 11.1724C95.7144 9.46646 93.8175 22.9234 93.6811 24.912C93.538 26.9993 92.2551 31.5356 92.2863 31.4479C90.9832 35.1996 87.2613 38.0903 84.6638 41.015C81.8966 44.1307 79.1316 47.2643 76.2248 50.2639C74.1436 52.4117 70.8152 55.3081 69.7223 58.1944C67.3865 64.3631 69.9005 71.6962 72.3819 77.4204C73.8495 80.806 76.054 84.1537 79.4453 88.0303M106.311 28.6863C108.751 28.6579 111.008 27.4547 113.489 27.3449C124.509 26.8575 133.801 32.0446 141.908 38.8175C143.932 40.5085 145.199 42.8529 147.083 44.5899C149.35 43.9364 151.602 42.8195 153.915 42.0973C157.319 41.034 164.247 39.6302 167.243 42.422C169.035 44.0929 167.197 46.8257 166.543 48.5978C163.659 56.42 161.147 64.5771 155.086 70.7133C154.098 76.5507 152.776 82.2807 151.125 87.9624C150.039 91.7012 149.283 96.1811 146.175 99.0275C138.954 105.641 124.474 105.091 115.36 104.187C110.98 103.973 107.531 102.913 103.323 101.856C96.6876 99.9546 83.6612 92.6119 80.0156 88.4468M87.168 63.8323C81.8307 68.636 96.8215 76.6388 99.1152 72.3302M99.1152 72.3302C97.5096 76.9859 100.106 78.2182 104.154 79.9786C108.591 81.9086 112.396 83.5793 113.674 77.5877M99.1152 72.3302C98.9903 71.2673 98.8271 70.6666 98.6431 69.8314C97.4825 64.5653 106.007 68.9761 104.231 71.335C103.355 72.4992 100.457 71.976 99.1152 72.3302ZM99.1152 72.3302C97.1409 74.5966 95.9636 77.4556 95.2006 80.3028M89.7161 71.2659C89.0096 72.9449 87.9578 74.8013 88.4888 76.6792C88.8565 77.9792 90.5826 79.6554 91.5369 80.5054C95.4318 83.9742 104.173 89.3819 105.522 80.7218M162.552 50.4264C163.198 49.071 163.859 47.5486 164.407 46.3091C165.004 44.9589 159.676 48.177 158.998 48.7071C157.782 49.6587 156.403 51.1622 155.414 52.4108C153.682 54.5974 155.794 58.522 156.864 60.7296M95.4143 30.9109C97.2523 30.3317 98.3596 29.7298 100.301 28.5689C101.661 27.756 104.178 27.4873 101.358 19.4641C100.916 18.2053 99.6857 16.4526 98.6682 14.9956C98.6682 14.9956 97.6286 17.0943 97.485 20.7666M-23.3034 131.073C-25.6898 138.172 -24.9268 146.844 -21.6766 153.505C-6.66048 156.043 8.25279 158.564 23.6355 158.08C39.0181 157.597 54.4532 154.123 69.994 150.624C72.2523 145.226 72.4882 136.832 70.8758 131.432M72.3718 -37.9492C72.3718 -36.3836 69.9493 -34.846 65.3508 -33.4926C60.7522 -32.1393 54.1416 -31.0185 46.1912 -30.2443C38.2408 -29.4701 29.2342 -29.0701 20.0874 -29.0849C10.9406 -29.0997 1.97983 -29.5288 -5.88357 -30.3286C-13.747 -31.1285 -20.2325 -32.2704 -24.6807 -33.6384C-29.1288 -35.0064 -31.3809 -36.5516 -31.2078 -38.1169C-30.7024 -45.6075 -26.7513 -54.3412 -23.7948 -60.4231M62.9806 -60.2689C67.4437 -54.6416 70.6935 -46.9568 72.3252 -38.2903M242.073 13.3946C234.667 17.9442 228.673 37.4109 232.07 47.0232M248.811 15.7839C243.661 16.0149 237.415 22.5758 235.898 33.3288C234.93 40.1871 237.384 45.5186 243.809 48.4872M234.68 14.9182C231.395 20.927 227.266 32.9325 226.391 41.2338M289.135 59.3316C270.603 56.4497 252.512 61.7066 247.904 77.5638C245.327 86.4324 247.689 97.2424 250.042 105.9C251.807 112.394 253.746 121.048 259.651 125.061C262.423 126.945 269.511 126.316 269.511 126.316C269.511 126.316 276.01 126.794 276.453 123.961C277.069 120.021 272.675 118.296 271.236 116.361C269.077 113.456 268.941 109.038 268.134 105.695M262.265 74.418L270.311 80.405M270.122 72.5492C267.002 75.1548 263.769 78.0936 261.987 81.8106M261.562 94.8388C264.656 104.292 272.085 109.953 277.107 112C277.107 112 281.413 113.407 284.486 113.658M281.768 94.9969C281.768 94.9969 281.983 100.938 282.561 104.937C283.391 110.683 285.34 116.744 289.407 121.999C292.943 126.568 300.211 126.645 307.723 125.225C307.723 125.225 311.728 123.586 309.154 119.298C307.293 116.198 304.865 117.52 303.253 111.514C301.911 103.992 306.296 107.395 309.431 97.1562M320.999 90.7664C323.458 88.284 325.622 86.9971 328.591 85.4932C329.494 85.0356 329.913 83.7913 330.708 82.3277C333.488 77.2109 340.561 74.9431 340.898 76.4277C341.463 78.9258 342.33 83.9134 342.583 85.6734C346.897 85.4592 348.044 86.1489 350.239 87.6557M304.893 115.359C307.889 115.002 318.441 115.58 322.114 115.804C328.534 116.196 337.913 118.949 342.367 118.888C350.432 118.776 359.207 116.816 367.189 115.663C371.96 114.975 377.41 115.735 378.883 110.798C379.763 107.848 375.539 103.441 369.314 103.605C363.411 103.76 352.211 104.582 347.249 102.002C339.197 97.815 331.212 97.3247 326.202 95.3227C319.922 92.4919 313.728 79.7029 313.728 79.7029C313.728 79.7029 307.96 68.2501 297.399 62.9142M266.395 60.5089C264.237 58.072 261.819 48.5747 271.222 41.9874C278.955 36.5703 295.131 37.0295 299.151 47.1823C301.474 53.0493 300.451 60.0511 295.439 64.1497C289.821 68.7434 284.504 67.7226 284.504 67.7226C284.504 67.7226 288.455 63.7496 289.136 59.3193C289.539 56.6964 288.796 53.9132 285.409 51.6993C279.713 47.9763 271.413 52.2258 271.245 59.1617M349.269 88.9564C352.94 83.8826 362.444 82.4593 362.502 83.3346C362.741 86.9473 362.087 91.7538 361.562 93.356C363.474 95.406 362.544 99.0531 362.781 99.1267C367.069 100.46 366.956 99.498 369.237 103.542M180.523 65.8164C190.676 62.5649 204.846 62.1813 214.382 64.4491M179.029 74.3491C188.427 71.9656 204.409 70.0409 216.151 72.6136M416.394 0.216787C416.598 1.80454 413.97 1.31556 414.486 3.28917C415.577 7.4608 430.162 12.5835 434.28 12.468C438.568 12.3476 438.775 9.15382 438.775 9.15382M438.775 9.15382C438.775 9.15382 437.056 12.972 441.511 14.7744C454.809 20.155 459.284 19.0721 459.918 16.896C460.241 15.788 458.928 13.9263 459.726 13.5178M438.775 9.15382C438.775 9.15382 444.942 7.50577 444.812 6.47341C444.705 5.61782 435.834 3.01665 435.349 3.85705C434.717 4.95172 438.775 9.15382 438.775 9.15382ZM417.318 6.344C416.858 8.07799 417.499 11.4889 418.681 10.7547C419.435 10.2862 420.882 8.40757 420.882 8.40757M452.814 18.4129C452.814 18.4129 452.343 20.1989 452.407 21.0784C452.553 23.1087 456.368 19.837 456.737 18.5979M417.633 -64.6463C417.633 -64.6463 423.433 -53.7462 420.914 -49.9677C418.792 -46.7869 410.759 -44.1409 410.759 -44.1409M508.53 -33.7195C508.53 -33.7195 496.952 -29.8374 495.629 -24.9863C494.152 -19.573 500.804 -13.2816 500.804 -13.2816M349.064 3.96077C350.157 -5.36866 357.492 -20.3035 360.999 -24.7727M339.917 -11.9697C341.084 -12.006 363.277 -8.32098 368.256 -7.37829M146.899 20.8943L133.977 13.5652L136.954 -0.989908L151.716 -2.65635L157.863 10.8688L146.899 20.8943ZM492.291 -70L491.865 -62.1864L498.06 -57.4054L490.497 -55.3964L487.864 -48.0273L483.617 -54.5994L475.795 -54.826L480.732 -60.8966L478.531 -68.4058L485.83 -65.5857L492.291 -70ZM182.002 -38.4871C175.393 -29.4731 167.235 -9.21373 169.304 5.04149C171.496 14.7143 175.112 16.3606 191.008 16.1809C203.499 16.0397 217.555 18.3657 220.801 5.70462C222.069 -8.9079 213.652 -32.2978 207.12 -39.7092C206.548 -40.311 202.862 -42.9829 199.232 -43.6435C194.771 -44.4552 190.501 -44.9124 184.576 -40.9729C184.576 -40.9729 182.944 -39.7151 182.002 -38.4871ZM27.1595 61.6549C27.1595 64.6911 24.6709 67.1525 21.6011 67.1525C18.5312 67.1525 16.0427 64.6911 16.0427 61.6549C16.0427 58.6187 18.5312 56.1574 21.6011 56.1574C24.6709 56.1574 27.1595 58.6187 27.1595 61.6549ZM38.6798 -9.37522C38.6798 -6.33901 36.1912 -3.87768 33.1213 -3.87768C30.0515 -3.87768 27.5629 -6.33901 27.5629 -9.37522C27.5629 -12.4114 30.0515 -14.8728 33.1213 -14.8728C36.1912 -14.8728 38.6798 -12.4114 38.6798 -9.37522ZM109.883 168.168C109.562 167.256 107.997 166.23 107.792 165.95C106.566 164.275 108.009 163.278 110.96 163.813C114.425 164.442 115.104 167.388 111.587 167.207C110.862 167.17 110.144 167.543 109.883 168.168ZM127.117 153.591C121.335 154.134 126.407 157.303 129.349 155.827C130.708 155.145 128.953 153.637 127.117 153.591ZM371.744 -55.0726C371.744 -52.0364 369.256 -49.5751 366.186 -49.5751C363.116 -49.5751 360.627 -52.0364 360.627 -55.0726C360.627 -58.1088 363.116 -60.5702 366.186 -60.5702C369.256 -60.5702 371.744 -58.1088 371.744 -55.0726ZM417.008 54.505C417.008 57.5412 414.519 60.0025 411.449 60.0025C408.379 60.0025 405.891 57.5412 405.891 54.505C405.891 51.4687 408.379 49.0074 411.449 49.0074C414.519 49.0074 417.008 51.4687 417.008 54.505ZM242.201 113.981C242.201 117.018 239.712 119.479 236.643 119.479C233.573 119.479 231.084 117.018 231.084 113.981C231.084 110.945 233.573 108.484 236.643 108.484C239.712 108.484 242.201 110.945 242.201 113.981ZM96.9394 51.0915C95.4015 50.2261 92.8011 50.6155 91.1425 51.1878C85.6089 53.0973 94.8067 56.7323 98.033 56.2117C100.665 55.787 99.3379 51.8357 96.9394 51.0915ZM121.42 65.615C113.75 66.8461 121.732 75.1477 126.278 73.6874C129.046 72.798 124.349 65.7187 121.42 65.615ZM70.5158 131.086C70.5158 133.698 49.5622 135.815 23.7146 135.815C-2.13297 135.815 -23.0866 133.698 -23.0866 131.086C-23.0866 128.475 -2.13297 126.358 23.7146 126.358C49.5622 126.358 70.5158 128.475 70.5158 131.086ZM29.5644 167.759C29.5644 172.46 25.715 176.271 20.9664 176.271C16.2178 176.271 12.3684 172.46 12.3684 167.759C12.3684 163.058 16.2178 159.247 20.9664 159.247C25.715 159.247 29.5644 163.058 29.5644 167.759ZM23.7902 157.854C23.7902 159.256 22.5334 160.393 20.983 160.393C19.4327 160.393 18.1759 159.256 18.1759 157.854C18.1759 156.453 19.4327 155.316 20.983 155.316C22.5334 155.316 23.7902 156.453 23.7902 157.854ZM175.889 110.142L162.17 115.844L152.508 104.559L160.256 91.8823L174.706 95.3332L175.889 110.142ZM100.03 123.703L92.5253 125.918L90.0957 133.357L85.6694 126.904L77.8442 126.892L82.6136 120.688L80.207 113.242L87.581 115.861L93.9188 111.271L93.7068 119.093L100.03 123.703ZM387.44 94.8336C395.567 89.9736 394.372 82.6579 387.665 69.7107C397.585 86.7427 401.398 85.1743 409.53 81.2075C403.763 84.9478 400.023 90.9953 408.996 106.646C402.465 95.3709 396.18 89.3714 387.44 94.8336ZM529.111 -43.9015C537.585 -39.6736 543.104 -44.622 550.397 -57.2483C541.393 -39.7148 544.77 -37.3471 552.493 -32.6345C546.235 -35.477 539.125 -35.3696 530.775 -19.3779C536.754 -30.9546 538.422 -39.4818 529.111 -43.9015ZM62.8521 -60.5084C62.8521 -57.0814 43.505 -54.3032 19.6392 -54.3032C-4.22664 -54.3032 -23.5737 -57.0814 -23.5737 -60.5084C-23.5737 -63.9355 -4.22664 -66.7137 19.6392 -66.7137C43.505 -66.7137 62.8521 -63.9355 62.8521 -60.5084ZM247.53 -56.2416L247.104 -48.428L253.299 -43.647L245.736 -41.638L243.103 -34.2689L238.856 -40.841L231.034 -41.0676L235.971 -47.1382L233.77 -54.6474L241.069 -51.8273L247.53 -56.2416ZM302.745 25.6976L289.341 19.29L291.293 4.56236L305.903 1.86779L312.981 14.9301L302.745 25.6976ZM327.06 135.439L331.582 141.825L339.407 141.721L334.73 147.995L337.247 155.404L329.835 152.895L323.566 157.579L323.662 149.754L317.27 145.239L324.742 142.912L327.06 135.439ZM65.111 2.17627C50.9237 9.45484 36.2699 14.6795 22.1625 22.5136C20.022 20.5132 18.5912 19.0876 15.8244 18.2054C10.1228 16.3875 4.66892 20.305 5.64215 26.4508C6.30158 30.6151 9.49867 33.4054 13.5937 33.888C14.292 33.9703 17.3149 33.376 17.1468 34.8801C17.0339 35.8906 16.3201 37.0816 16.1199 38.1501C15.2297 42.9001 19.1707 47.0396 23.7483 48.3601C29.4308 49.9993 32.0985 43.7984 31.78 42.0069C31.4729 40.2793 30.3475 37.8304 28.2974 35.9605C42.4015 28.9436 56.5153 21.0436 70.4016 13.531C72.8922 15.504 73.4787 17.8028 77.146 18.4434C83.3328 19.524 87.3244 14.3144 85.1926 8.45792C83.8046 4.64461 77.2136 4.21626 77.1453 2.3311C77.0992 1.05754 78.7624 -0.0204781 78.3592 -2.24412C77.4753 -7.11811 70.1732 -8.5657 66.352 -6.46601C63.389 -4.83793 59.3958 1.7642 65.111 2.17627ZM27.6996 -38.3841C33.8459 -38.6986 39.9133 -38.2029 46.098 -38.7291C46.6458 -37.6678 47.0011 -36.9266 47.9177 -36.1643C49.8068 -34.5934 52.3066 -35.1149 52.6991 -37.4714C52.965 -39.068 52.1227 -40.5826 50.6651 -41.4164C50.4166 -41.5585 49.2241 -41.8338 49.4707 -42.345C49.6363 -42.6883 50.0466 -42.9993 50.2516 -43.3494C51.1632 -44.9055 50.2107 -47.023 48.677 -48.2345C46.7732 -49.7384 45.0255 -47.9499 44.924 -47.2575C44.8261 -46.5896 44.9429 -45.5316 45.4731 -44.5315C39.3897 -44.2972 33.1946 -43.7484 27.1312 -43.3015C26.4504 -44.4096 26.5148 -45.3269 25.235 -46.1481C23.0759 -47.5335 20.9594 -46.3135 21.0315 -43.8736C21.0784 -42.2849 23.4671 -41.0677 23.2614 -40.3821C23.1225 -39.9189 22.3744 -39.8016 22.2513 -38.9407C21.9816 -37.0539 24.5088 -35.3571 26.1813 -35.4917C27.4781 -35.596 29.7659 -37.3141 27.6996 -38.3841ZM486.761 137.14C479.143 137.14 479.486 145.661 478.647 145.818C475.564 146.396 473.623 149.493 473.595 151.635C473.536 156.12 476.639 160.27 481.184 159.951C486.871 159.553 491.052 151.537 491.052 151.537C491.052 151.537 500.274 154.329 504.248 148.817C506.331 145.928 504.645 138.598 498.01 137.728C495.478 137.395 493.586 138.701 493.459 138.617C492.134 137.745 489.228 137.14 486.761 137.14ZM487.254 128.755C484.208 128.351 478.097 115.875 485.996 114.52C493.897 113.164 491.37 127.934 487.254 128.755ZM476.401 133.479C473.447 134.323 462.867 125.321 469.57 120.927C476.274 116.532 479.849 131.085 476.401 133.479ZM471.897 143.836C470.161 145.829 458.695 143.939 461.551 137.556C464.408 131.17 473.307 140.451 471.897 143.836ZM496.888 133.349C494.505 132.208 493.269 120.653 500.183 121.704C507.099 122.755 500.526 133.806 496.888 133.349ZM493.7 156.834C496.527 155.527 505.406 157.425 508.366 149.709C511.132 142.497 507.387 140.167 506.515 135.897C505.543 131.137 509.911 124.408 505.091 118.574C502.152 115.016 495.841 117.241 495.841 117.241C495.841 117.241 493.572 109.729 486.55 109.579C480.892 109.457 477.228 116.937 477.228 116.937C477.228 116.937 471.023 113.188 466.622 117.15C461.993 121.317 463.887 129.573 463.887 129.573C463.887 129.573 457.4 132.157 457.195 137.559C456.913 145.006 465.761 149.266 468.063 151.905C469.63 153.702 470.485 161.762 477.12 163.787C485.027 166.199 490.862 158.146 493.7 156.834ZM257.812 31.0002C257.812 40.9213 249.769 48.9639 239.848 48.9639C229.927 48.9639 221.884 40.9213 221.884 31.0002C221.884 21.0791 229.927 13.0365 239.848 13.0365C249.769 13.0365 257.812 21.0791 257.812 31.0002ZM536.697 59.9319C536.697 59.9319 534.035 59.728 533.297 57.297C531.97 52.9277 540.64 47.447 545.676 45.497C552.944 42.6828 561.533 42.0715 562.885 46.729C563.351 48.3335 561.815 50.8411 561.815 50.8411C561.815 50.8411 566.479 63.0202 565.96 65.2134C565.329 67.8794 544.8 75.12 543.263 74.4891C541.074 73.5909 536.697 59.9319 536.697 59.9319ZM184.628 52.1804C176.702 67.4183 177.397 85.1611 181.577 88.795C185.728 92.4032 211.063 90.4165 215.621 86.6089C221.3 81.8647 213.533 55.2317 208.043 50.7074C208.505 50.3224 208.883 47.8349 208.541 47.7186C207.883 47.4946 207.124 47.9752 206.445 47.9438C205.511 47.9008 205.507 46.9058 203.819 46.9585C202.946 46.9858 202.33 47.9373 201.476 48.0476C200.47 48.1775 199.88 47.0821 198.902 47.1564C197.66 47.2508 196.926 48.4187 195.75 48.6451C194.661 48.8548 194.021 48.0476 193.01 48.0476C191.858 48.0476 190.979 49.0924 189.897 49.2719C187.968 49.5919 187.592 48.5921 186.718 48.8194C185.45 48.8996 185.994 50.5355 183.952 50.0182C183.736 49.9633 184.915 52.1035 184.628 52.1804ZM435.041 96.8415C439.533 96.9462 473.386 94.0945 474.672 92.4781C477.037 89.5034 477.053 86.1752 476.018 84.3635C473.406 79.7932 468.233 80.7708 468.233 80.7708C468.233 80.7708 469.948 77.1465 467.205 73.7721C464.874 70.9044 460.313 70.5091 460.313 70.5091C460.313 70.5091 460.607 67.4339 457.827 65.5584C455.4 64.1247 453.042 63.8462 450.615 62.5455C448.377 61.3456 449.64 57.7424 449.64 57.7424C449.64 57.7424 442.184 62.6889 442.679 68.4548C442.759 69.3939 443.873 71.6866 443.873 71.6866C443.873 71.6866 437.766 73.8069 436.14 78.7567C435.045 82.0916 436.445 83.9032 436.445 83.9032C436.445 83.9032 431.792 86.1924 431.236 89.2248C430.101 95.4155 435.041 96.8415 435.041 96.8415ZM402.892 29.4597C402.892 29.4597 382.213 14.9874 381.656 -0.976092C381.454 -6.7691 398.013 -35.2904 403.963 -43.3894C405.805 -45.8967 412.469 -69.2462 416.653 -69.4081C427.155 -69.8146 433.144 -55.1597 436.759 -47.5916C455.889 -52.0314 477.675 -41.7445 486.403 -34.4372C489.539 -36.8823 512.663 -41.515 513.995 -37.3494C514.443 -35.9482 511.029 -15.5789 505.173 -8.09359C503.77 -0.269658 500.441 29.4404 498.453 33.6553C492.08 47.1653 456.885 46.6402 456.885 46.6402C456.885 46.6402 416.568 36.5302 402.892 29.4597ZM417.198 -10.1497C417.198 -10.1497 418.397 -12.9926 420.906 -13.1953C423.047 -13.3682 431.177 -9.45311 431.219 -6.75768C431.238 -5.54937 429.198 -5.53061 424.028 -6.34715C417.051 -7.4492 417.198 -10.1497 417.198 -10.1497ZM454.906 0.857403C455.617 -1.66412 464.721 -1.01525 466.527 -0.353012C469.432 0.711912 469.318 5.19192 467.529 5.78211C465.208 6.54758 455.703 4.17726 454.906 0.857403ZM432.597 -19.9636C432.597 -19.9636 429.923 -17.933 431.215 -15.466C433.624 -10.8655 440.52 -14.6647 439.126 -18.6893C437.429 -23.5882 432.597 -19.9636 432.597 -19.9636ZM453.03 -10.4772C453.03 -10.4772 453.995 -7.26137 456.759 -7.60706C461.912 -8.25172 460.77 -16.0415 456.512 -16.1461C451.329 -16.2734 453.03 -10.4772 453.03 -10.4772ZM394.392 -9.29088C388.815 -6.40477 390.619 -1.18921 395.887 0.379277C401.622 2.08684 406.744 2.30802 408.302 -2.42215C409.636 -6.47208 399.808 -12.0941 394.392 -9.29088ZM472.369 20.285C471.661 24.9178 477.684 26.8422 480.9 27.6139C485.346 28.6805 488.957 25.4124 487.084 21.0117C483.52 12.6398 473.065 15.7243 472.369 20.285ZM322.328 -31.703L291.701 -19.3354C291.701 -19.3354 294.631 -5.1503 281.211 -6.26786C269.204 -7.26778 273.771 -20.5589 273.771 -20.5589C273.771 -20.5589 259.147 -21.5287 262.34 -33.025C265.786 -45.4358 279.168 -36.2776 279.168 -36.2776L311.066 -48.8198C311.066 -48.8198 311.337 -61.4824 323.113 -59.762C333.334 -58.2688 329.198 -46.8149 329.198 -46.8149C329.198 -46.8149 344.745 -45.3548 339.111 -33.1464C334.94 -24.1065 322.328 -31.703 322.328 -31.703ZM348.014 31.5438C348.014 31.5438 347.046 29.0565 348.918 27.3387C352.282 24.2511 360.976 29.6948 364.913 33.3903C370.596 38.7236 374.865 46.2022 371.251 49.4369C370.007 50.5512 367.081 50.2519 367.081 50.2519C367.081 50.2519 358.121 59.7279 355.919 60.2096C353.243 60.7951 337.83 45.4229 337.733 43.7638C337.595 41.402 348.014 31.5438 348.014 31.5438ZM380.609 161.288C395.209 154.878 410.152 150.548 424.706 143.579C426.722 145.705 428.064 147.214 430.773 148.262C436.354 150.421 442.035 146.839 441.434 140.646C441.027 136.45 438.004 133.471 433.946 132.742C433.254 132.618 430.2 133.029 430.459 131.538C430.633 130.536 431.417 129.39 431.681 128.336C432.857 123.648 429.173 119.278 424.683 117.684C419.11 115.705 416.073 121.733 416.282 123.541C416.485 125.284 417.46 127.796 419.394 129.786C404.892 135.939 390.327 142.973 376.013 149.634C373.646 147.515 373.199 145.185 369.577 144.324C363.467 142.872 359.168 147.831 360.943 153.806C362.098 157.696 368.651 158.521 368.606 160.407C368.575 161.681 366.85 162.657 367.118 164.9C367.706 169.819 374.907 171.704 378.848 169.839C381.904 168.393 386.289 162.044 380.609 161.288ZM91.5089 -13.0486C99.636 -17.9087 98.4412 -25.2243 91.7341 -38.1715C101.654 -21.1395 105.467 -22.7079 113.599 -26.6747C107.832 -22.9345 104.092 -16.8869 113.065 -1.23672C106.534 -12.5114 100.249 -18.5108 91.5089 -13.0486Z" stroke="white" stroke-opacity="0.35" stroke-width="2" stroke-linecap="round" stroke-linejoin="round"/>
</svg>
